<?xml version="1.0" standalone="no"?>
<!DOCTYPE svg PUBLIC "-//W3C//DTD SVG 20010904//EN"
 "http://www.w3.org/TR/2001/REC-SVG-20010904/DTD/svg10.dtd">
<svg version="1.0" xmlns="http://www.w3.org/2000/svg"
 width="180.000000pt" height="54.000000pt" viewBox="0 0 180.000000 54.000000"
 preserveAspectRatio="xMidYMid meet">

<g transform="translate(0.000000,54.000000) scale(0.100000,-0.100000)"
fill="#000000" stroke="none">
<path d="M763 295 c0 -33 2 -45 4 -27 2 18 2 45 0 60 -2 15 -4 0 -4 -33z"/>
<path d="M480 320 c0 -13 5 -20 13 -17 6 2 12 10 12 17 0 7 -6 15 -12 18 -8 2
-13 -5 -13 -18z"/>
<path d="M1270 320 c0 -13 5 -20 13 -17 6 2 12 10 12 17 0 7 -6 15 -12 18 -8
2 -13 -5 -13 -18z"/>
<path d="M587 313 c-12 -11 -8 -23 8 -23 8 0 15 7 15 15 0 16 -12 20 -23 8z"/>
<path d="M1377 313 c-12 -11 -8 -23 8 -23 8 0 15 7 15 15 0 16 -12 20 -23 8z"/>
<path d="M1625 271 c-29 -41 -35 -57 -35 -100 l0 -51 -46 0 c-41 0 -45 -2 -42
-22 3 -25 32 -34 74 -24 21 6 24 12 24 54 0 42 6 57 45 108 50 66 51 70 30 77
-9 4 -27 -11 -50 -42z"/>
<path d="M1442 264 c36 -50 48 -61 48 -44 0 19 -54 90 -68 90 -8 0 0 -18 20
-46z"/>
<path d="M346 293 c-4 -4 -24 -7 -44 -6 -36 2 -36 2 -8 -7 15 -5 36 -16 46
-25 16 -15 18 -14 22 15 4 29 -1 37 -16 23z"/>
<path d="M997 294 c-9 -10 -9 -52 1 -58 13 -8 44 22 40 41 -3 18 -29 29 -41
17z"/>
<path d="M1151 257 c-3 -114 -144 -173 -229 -95 l-25 23 17 -33 c35 -68 127
-92 194 -52 51 31 76 110 52 165 -8 18 -9 17 -9 -8z"/>
<path d="M200 252 c0 -11 24 -22 48 -22 21 0 5 15 -25 25 -13 3 -23 2 -23 -3z"/>
<path d="M482 218 c2 -15 11 -24 26 -26 20 -3 23 0 20 20 -2 15 -11 24 -26 26
-20 3 -23 0 -20 -20z"/>
<path d="M1272 218 c2 -15 11 -24 26 -26 20 -3 23 0 20 20 -2 15 -11 24 -26
26 -20 3 -23 0 -20 -20z"/>
<path d="M328 176 c-16 -12 -28 -32 -28 -45 0 -19 -4 -22 -22 -17 -13 3 -29 6
-35 6 -7 0 -13 9 -13 19 0 10 -7 22 -16 25 -23 9 -24 8 -24 -18 0 -18 7 -25
29 -29 24 -5 28 -10 24 -27 -5 -17 -1 -20 31 -20 32 0 36 3 36 25 0 15 6 25
14 25 21 0 38 26 34 54 l-3 24 -27 -22z"/>
<path d="M865 166 c-7 -33 -10 -36 -44 -36 -20 0 -60 -3 -88 -6 -48 -6 -53 -9
-53 -32 0 -20 4 -23 23 -18 12 3 54 6 93 6 l71 0 7 56 c7 64 1 85 -9 30z"/>
<path d="M627 154 c-22 -30 -74 -44 -164 -44 -72 0 -79 -3 -67 -34 12 -32 205
-14 237 22 19 21 32 68 20 75 -4 3 -16 -6 -26 -19z"/>
<path d="M1417 154 c-22 -30 -74 -44 -164 -44 -72 0 -79 -3 -67 -34 12 -32
205 -14 237 22 19 21 32 68 20 75 -4 3 -16 -6 -26 -19z"/>
</g>
</svg>
